<svg xmlns="http://www.w3.org/2000/svg" width="13" height="13" viewBox="0 0 13 13" fill="none">
  <path d="M5.57951 12.799C5.37019 12.8003 5.16364 12.7511 4.97739 12.6555C4.79114 12.56 4.63069 12.4209 4.50965 12.2502C4.38656 12.0808 4.30615 11.8843 4.27523 11.6772C4.24431 11.4702 4.2638 11.2587 4.33205 11.0608L5.42111 7.99896H2.86858L2.21365 8.99736C2.0925 9.18251 1.92706 9.3345 1.73232 9.43955C1.53758 9.5446 1.31971 9.59939 1.09845 9.59896C0.921894 9.59918 0.747896 9.55679 0.591231 9.47538C0.434566 9.39398 0.299862 9.27597 0.198559 9.13137C0.0972571 8.98677 0.0323495 8.81986 0.00934935 8.64481C-0.0136508 8.46977 0.00593609 8.29175 0.0664464 8.12589L0.66858 6.40323L0.030713 4.73229C-0.0535536 4.30083 0.0477797 3.89816 0.288846 3.60803C0.392247 3.48025 0.522939 3.37723 0.671336 3.30654C0.819733 3.23585 0.982072 3.19927 1.14645 3.19949C1.59551 3.19949 2.01098 3.42243 2.25845 3.79683L2.92245 4.79949H5.42058L4.33311 1.74189C4.26405 1.54358 4.24399 1.3315 4.27463 1.12375C4.30528 0.916003 4.38573 0.718751 4.50911 0.548826C4.63016 0.378048 4.79061 0.238989 4.97686 0.14345C5.16311 0.0479114 5.36966 -0.00128847 5.57898 2.56491e-05C6.13205 2.56491e-05 6.64031 0.301359 6.90538 0.787226L9.20245 4.80003H11.1235C11.94 4.80003 12.6494 5.37336 12.7731 6.13336C12.8499 6.60323 12.7187 7.07789 12.4142 7.43629C12.1096 7.79469 11.6654 8.00003 11.195 8.00003H9.20298L6.90325 12.0176C6.77309 12.2548 6.58152 12.4526 6.34862 12.5903C6.11571 12.7279 5.85006 12.8004 5.57951 12.8V12.799ZM2.72458 7.46563H5.79925C5.84193 7.46571 5.88397 7.47603 5.92183 7.49573C5.9597 7.51543 5.99228 7.54393 6.01684 7.57884C6.0414 7.61375 6.05723 7.65405 6.06298 7.69634C6.06874 7.73863 6.06425 7.78169 6.04991 7.82189L4.83551 11.2358C4.75551 11.4742 4.79391 11.7318 4.94271 11.9392C5.09151 12.1467 5.32351 12.2656 5.57898 12.2656C5.93685 12.2656 6.26591 12.0704 6.43765 11.7558L8.81631 7.59949C8.83969 7.55878 8.87341 7.52496 8.91405 7.50145C8.9547 7.47795 9.00083 7.46559 9.04778 7.46563H11.1944C11.508 7.46563 11.8046 7.32856 12.0072 7.08963C12.1088 6.97096 12.1829 6.83129 12.2243 6.68064C12.2656 6.52998 12.273 6.37205 12.2462 6.21816C12.164 5.71309 11.6808 5.33229 11.123 5.33229H9.04725C9.00029 5.33233 8.95417 5.31997 8.91352 5.29647C8.87288 5.27296 8.83916 5.23914 8.81578 5.19843L6.44085 1.04643C6.35684 0.891138 6.23248 0.761405 6.08088 0.670914C5.92928 0.580424 5.75607 0.532532 5.57951 0.532292C5.32405 0.532292 5.09205 0.651226 4.94325 0.858692C4.79445 1.06616 4.75551 1.32429 4.83765 1.56643L6.05045 4.97656C6.06479 5.01676 6.06927 5.05982 6.06352 5.10211C6.05776 5.14441 6.04194 5.1847 6.01738 5.21961C5.99282 5.25452 5.96023 5.28302 5.92237 5.30272C5.8845 5.32242 5.84246 5.33275 5.79978 5.33283H2.78005C2.73599 5.33283 2.69262 5.32193 2.65381 5.30108C2.615 5.28023 2.58196 5.25009 2.55765 5.21336L1.81418 4.09123C1.57045 3.72323 0.99658 3.59256 0.69898 3.94936C0.627936 4.03826 0.577069 4.14154 0.549902 4.25205C0.522736 4.36256 0.519919 4.47765 0.541646 4.58936L1.20085 6.30456C1.22328 6.36331 1.22422 6.42811 1.20351 6.48749L0.568313 8.30616C0.503246 8.48483 0.52778 8.67309 0.634446 8.82616C0.741113 8.97923 0.909646 9.06669 1.09578 9.06669C1.229 9.06722 1.36024 9.03447 1.47759 8.97142C1.59494 8.90836 1.69469 8.817 1.76778 8.70563L2.50165 7.58723C2.52589 7.55022 2.55896 7.51982 2.59788 7.49878C2.6368 7.47774 2.68034 7.46671 2.72458 7.46669V7.46563Z" fill="white"/>
</svg>