<svg xmlns="http://www.w3.org/2000/svg" width="12" height="12" viewBox="0 0 12 12" fill="none">
  <path d="M10.6996 0.600292C10.4927 0.408426 10.2197 0.302004 9.98733 0.235055C9.73941 0.163635 9.45582 0.114939 9.16381 0.0808397C8.57858 0.0125033 7.89235 -0.00457548 7.25007 0.000972975C6.60416 0.0065528 5.98546 0.0352496 5.52944 0.0623983C5.30103 0.075996 5.11253 0.0892609 4.9807 0.099162C4.91477 0.104114 4.86297 0.108229 4.82738 0.111128L4.78641 0.11452L4.77552 0.115445L4.7713 0.11581C4.42497 0.145981 4.16867 0.451196 4.19884 0.797528C4.22901 1.14384 4.53468 1.40009 4.88099 1.36995L4.8831 1.36977L4.89226 1.36899L4.92961 1.3659C4.96272 1.3632 5.01188 1.3593 5.07499 1.35455C5.20127 1.34507 5.38322 1.33226 5.60425 1.3191C6.0471 1.29274 6.64319 1.26519 7.26094 1.25985C7.88233 1.25449 8.50863 1.27182 9.01779 1.33127C9.04638 1.33461 9.0744 1.33806 9.10182 1.34162L0.184366 10.2591C-0.0614553 10.5049 -0.0614553 10.9035 0.184366 11.1493C0.430187 11.3951 0.828742 11.3951 1.07456 11.1493L9.99409 2.22975C9.99557 2.24179 9.99703 2.25396 9.99847 2.26625C10.0575 2.76967 10.0751 3.3995 10.0702 4.02896C10.0654 4.65447 10.0387 5.26195 10.013 5.71432C10.0001 5.94011 9.98761 6.12634 9.97833 6.25573C9.97369 6.32041 9.96987 6.37083 9.96723 6.40484L9.96419 6.44324L9.9632 6.4554C9.93443 6.80183 10.1919 7.10601 10.5384 7.13481C10.8848 7.16361 11.189 6.90569 11.2178 6.55924L11.2182 6.55539L11.2191 6.5443L11.2224 6.50246C11.2252 6.4661 11.2292 6.41315 11.234 6.34579C11.2437 6.2111 11.2566 6.01861 11.2699 5.78576C11.2963 5.32087 11.3241 4.69148 11.3291 4.03863C11.3341 3.3897 11.3168 2.69964 11.2488 2.11972C11.215 1.83078 11.1665 1.55005 11.0944 1.30742C11.0288 1.0863 10.9175 0.802298 10.6996 0.600292Z" fill="white"/>
</svg>