<svg xmlns="http://www.w3.org/2000/svg" width="16" height="16" viewBox="0 0 16 16" fill="none">
  <path fill-rule="evenodd" clip-rule="evenodd" d="M7.61471 4.25C6.34331 4.25 5.31263 5.28068 5.31263 6.55208C5.31263 7.82349 6.34331 8.85417 7.61471 8.85417C8.88612 8.85417 9.9168 7.82349 9.9168 6.55208C9.9168 5.28068 8.88612 4.25 7.61471 4.25ZM6.37513 6.55208C6.37513 5.86748 6.93011 5.3125 7.61471 5.3125C8.29932 5.3125 8.8543 5.86748 8.8543 6.55208C8.8543 7.23669 8.29932 7.79167 7.61471 7.79167C6.93011 7.79167 6.37513 7.23669 6.37513 6.55208Z" fill="white"/>
  <path d="M3.01055 6.55208C3.40175 6.55208 3.71888 6.86921 3.71888 7.26042V7.26678C3.71888 7.65798 3.40175 7.97511 3.01055 7.97511C2.61934 7.97511 2.30221 7.65798 2.30221 7.26678V7.26042C2.30221 6.86921 2.61934 6.55208 3.01055 6.55208Z" fill="white"/>
  <path d="M12.9272 5.83822C12.9272 5.44701 12.6101 5.12988 12.2189 5.12988C11.8277 5.12988 11.5105 5.44701 11.5105 5.83822V5.84458C11.5105 6.23578 11.8277 6.55291 12.2189 6.55291C12.6101 6.55291 12.9272 6.23578 12.9272 5.84458V5.83822Z" fill="white"/>
  <path fill-rule="evenodd" clip-rule="evenodd" d="M7.38991 0.758244C8.41502 0.279467 9.73371 0 11.1564 0C11.9496 0 12.708 0.0868182 13.4 0.245316L13.4413 0.254767C13.8287 0.343255 14.1443 0.415342 14.4901 0.688951C14.6969 0.852634 14.9269 1.14118 15.0402 1.37936C15.2302 1.77849 15.2298 2.17334 15.2294 2.66222L15.2293 10.3672C15.2293 11.4773 14.1023 12.1212 13.1628 11.906C12.5519 11.7661 11.8732 11.6875 11.1564 11.6875C9.86322 11.6875 8.70219 11.943 7.83953 12.3459C6.81442 12.8247 5.49574 13.1042 4.07305 13.1042C3.27983 13.1042 2.52144 13.0173 1.82945 12.8589L1.7881 12.8494C1.40072 12.7609 1.08514 12.6888 0.73936 12.4152C0.532494 12.2515 0.302565 11.963 0.189199 11.7248C-0.000768889 11.3257 -0.000385205 10.9308 9.0065e-05 10.4419L0.00013828 2.73698C0.00013828 1.62689 1.1271 0.982969 2.06666 1.19817C2.67756 1.33809 3.35622 1.41667 4.07305 1.41667C5.36622 1.41667 6.52726 1.16115 7.38991 0.758244ZM11.1564 1.0625C9.86322 1.0625 8.70219 1.31802 7.83953 1.72092C6.81442 2.1997 5.49574 2.47917 4.07305 2.47917C3.27983 2.47917 2.52144 2.39235 1.82945 2.23385C1.40905 2.13756 1.06264 2.4519 1.06264 2.73698V10.3672C1.06264 10.9639 1.07313 11.1097 1.14858 11.2682C1.19205 11.3595 1.31931 11.5192 1.39864 11.582C1.54243 11.6958 1.63558 11.7244 2.06666 11.8232C2.67756 11.9631 3.35622 12.0417 4.07305 12.0417C5.36622 12.0417 6.52726 11.7861 7.38991 11.3832C8.41502 10.9045 9.73371 10.625 11.1564 10.625C11.9496 10.625 12.708 10.7118 13.4 10.8703C13.8204 10.9666 14.1668 10.6523 14.1668 10.3672V2.73698C14.1668 2.14022 14.1563 1.9945 14.0809 1.83599C14.0374 1.74464 13.9101 1.58494 13.8308 1.52216C13.687 1.40839 13.5939 1.37973 13.1628 1.281C12.5519 1.14107 11.8732 1.0625 11.1564 1.0625Z" fill="white"/>
  <path d="M4.07304 14.1667C2.77988 14.1667 1.61884 13.9111 0.756186 13.5082C0.49035 13.3841 0.174197 13.4989 0.0500376 13.7648C-0.0741213 14.0306 0.0407307 14.3468 0.306567 14.4709C1.33168 14.9497 2.65036 15.2292 4.07304 15.2292C5.49573 15.2292 6.81441 14.9497 7.83952 14.4709C8.70217 14.068 9.86321 13.8125 11.1564 13.8125C12.4495 13.8125 13.6106 14.068 14.4732 14.4709C14.7391 14.5951 15.0552 14.4802 15.1794 14.2144C15.3035 13.9486 15.1887 13.6324 14.9229 13.5082C13.8977 13.0295 12.5791 12.75 11.1564 12.75C9.73369 12.75 8.41501 13.0295 7.3899 13.5082C6.52724 13.9111 5.36621 14.1667 4.07304 14.1667Z" fill="white"/>
</svg>