<svg xmlns="http://www.w3.org/2000/svg" width="8" height="13" viewBox="0 0 8 13" fill="none">
  <path d="M5.41762 6.5152L4.00002 6.18773V1.6H4.53335C5.85655 1.6 6.93335 2.6768 6.93335 4C6.93335 4.07072 6.96144 4.13855 7.01145 4.18856C7.06146 4.23857 7.12929 4.26667 7.20002 4.26667C7.27074 4.26667 7.33857 4.23857 7.38858 4.18856C7.43859 4.13855 7.46668 4.07072 7.46668 4C7.46668 2.38293 6.15042 1.06667 4.53335 1.06667H4.00002V0.266667C4.00002 0.195942 3.97192 0.128115 3.92191 0.0781049C3.8719 0.0280952 3.80407 0 3.73335 0C3.66263 0 3.5948 0.0280952 3.54479 0.0781049C3.49478 0.128115 3.46668 0.195942 3.46668 0.266667V1.06667H2.64268C1.94202 1.06737 1.27026 1.34602 0.774815 1.84147C0.279372 2.33691 0.000722243 3.00867 1.62853e-05 3.70933C-0.00208775 4.30761 0.199743 4.88875 0.572234 5.35693C0.944724 5.82512 1.46564 6.15239 2.04908 6.2848L3.46668 6.61227V11.2H2.93335C2.29705 11.1993 1.68701 10.9462 1.23707 10.4963C0.787139 10.0463 0.534055 9.4363 0.53335 8.8C0.53335 8.72928 0.505254 8.66145 0.455245 8.61144C0.405235 8.56143 0.337407 8.53333 0.266683 8.53333C0.195959 8.53333 0.128131 8.56143 0.0781212 8.61144C0.0281115 8.66145 1.62853e-05 8.72928 1.62853e-05 8.8C1.62853e-05 10.4171 1.31628 11.7333 2.93335 11.7333H3.46668V12.5333C3.46668 12.6041 3.49478 12.6719 3.54479 12.7219C3.5948 12.7719 3.66263 12.8 3.73335 12.8C3.80407 12.8 3.8719 12.7719 3.92191 12.7219C3.97192 12.6719 4.00002 12.6041 4.00002 12.5333V11.7333H4.82402C5.52468 11.7326 6.19644 11.454 6.69188 10.9585C7.18733 10.4631 7.46598 9.79133 7.46668 9.09067C7.46879 8.49239 7.26696 7.91125 6.89447 7.44307C6.52198 6.97488 6.00106 6.64761 5.41762 6.5152ZM2.16855 5.76533C1.70289 5.6597 1.28715 5.39851 0.989881 5.02484C0.692615 4.65118 0.531585 4.18735 0.53335 3.70987C0.534055 3.15065 0.756515 2.61455 1.15194 2.21912C1.54736 1.8237 2.08347 1.60124 2.64268 1.60053H3.46668V6.06507L2.16855 5.76533ZM4.82402 11.2H4.00002V6.73547L5.29815 7.0352C5.76381 7.14083 6.17955 7.40202 6.47682 7.77569C6.77408 8.14936 6.93511 8.61318 6.93335 9.09067C6.93264 9.64988 6.71018 10.186 6.31476 10.5814C5.91934 10.9768 5.38323 11.1993 4.82402 11.2Z" fill="white"/>
</svg>