<svg xmlns="http://www.w3.org/2000/svg" width="16" height="16" viewBox="0 0 16 16" fill="none">
  <path d="M8.66667 0.684211C8.66667 0.306331 8.36033 0 7.98246 0C7.60458 0 7.29825 0.306332 7.29825 0.684211V8.40386L7.29272 8.39734C7.10052 8.17052 6.91232 7.9308 6.73634 7.70664L6.69553 7.65467C6.52017 7.4314 6.33568 7.19684 6.19239 7.04943C5.92901 6.77846 5.49584 6.7723 5.22487 7.03568C4.9539 7.29906 4.94774 7.73223 5.21112 8.0032C5.29204 8.08646 5.42489 8.25232 5.61938 8.49994L5.66231 8.55462C5.8357 8.77551 6.03913 9.03467 6.2487 9.28199C6.47331 9.54706 6.72471 9.82238 6.97602 10.0364C7.10195 10.1437 7.2439 10.2495 7.39661 10.3312C7.54389 10.41 7.74683 10.4912 7.98246 10.4912C8.21809 10.4912 8.42102 10.41 8.5683 10.3312C8.72101 10.2495 8.86296 10.1437 8.9889 10.0364C9.24021 9.82238 9.49161 9.54706 9.71621 9.28199C9.92578 9.03468 10.1292 8.77556 10.3026 8.55467L10.3455 8.49994C10.54 8.25232 10.6729 8.08646 10.7538 8.0032C11.0172 7.73223 11.011 7.29906 10.74 7.03568C10.4691 6.7723 10.0359 6.77846 9.77252 7.04943C9.62924 7.19684 9.44475 7.4314 9.26938 7.65467L9.2286 7.70661C9.05261 7.93077 8.86439 8.17052 8.67219 8.39734L8.66667 8.40386V0.684211Z" fill="white"/>
  <path d="M1.36842 11.6316C1.36842 11.2537 1.06209 10.9474 0.684211 10.9474C0.306331 10.9474 0 11.2537 0 11.6316C0 12.2125 0.029406 12.7254 0.125152 13.1613C0.222601 13.6049 0.397861 14.0111 0.719716 14.3329C1.04157 14.6548 1.44778 14.83 1.89137 14.9275C2.32721 15.0232 2.84017 15.0526 3.42105 15.0526H12.5439C13.1247 15.0526 13.6377 15.0232 14.0735 14.9275C14.5171 14.83 14.9233 14.6548 15.2452 14.3329C15.5671 14.0111 15.7423 13.6049 15.8398 13.1613C15.9355 12.7254 15.9649 12.2125 15.9649 11.6316C15.9649 11.2537 15.6586 10.9474 15.2807 10.9474C14.9028 10.9474 14.5965 11.2537 14.5965 11.6316C14.5965 12.1828 14.5668 12.5781 14.5032 12.8676C14.4413 13.1495 14.3569 13.286 14.2776 13.3653C14.1983 13.4446 14.0618 13.529 13.7799 13.5909C13.4903 13.6545 13.0951 13.6842 12.5439 13.6842H3.42105C2.86979 13.6842 2.47458 13.6545 2.18498 13.5909C1.90314 13.529 1.76666 13.4446 1.68734 13.3653C1.60802 13.286 1.52362 13.1495 1.4617 12.8676C1.39809 12.5781 1.36842 12.1828 1.36842 11.6316Z" fill="white"/>
</svg>