<svg width="315" height="315" viewBox="0 0 315 315" fill="none" xmlns="http://www.w3.org/2000/svg">
<g filter="url(#filter0_di_4540_19473)">
<path d="M157.172 253.612C211.677 253.612 255.862 209.427 255.862 154.923C255.862 100.418 211.677 56.2333 157.172 56.2333C102.667 56.2333 58.4826 100.418 58.4826 154.923C58.4826 209.427 102.667 253.612 157.172 253.612Z" fill="black" fill-opacity="0.6" shape-rendering="crispEdges"/>
</g>
<path d="M155.433 107.406L157.134 109.041L155.499 110.741L153.798 109.107L155.433 107.406Z" fill="white"/>
<path d="M159.325 109.107L161.033 110.741L162.668 109.041L160.967 107.406L159.325 109.107Z" fill="white"/>
<path d="M156.932 111.252L158.256 112.523L159.533 111.2L158.203 109.929L156.932 111.252Z" fill="white"/>
<path d="M161.799 111.98L163.129 113.251L164.4 111.927L163.076 110.657L161.799 111.98Z" fill="white"/>
<path d="M154.763 113.276L156.086 114.554L157.364 113.223L156.033 111.953L154.763 113.276Z" fill="white"/>
<path d="M159.215 113.439L160.539 114.71L161.816 113.386L160.486 112.116L159.215 113.439Z" fill="white"/>
<path d="M157.47 114.954L158.409 115.847L159.303 114.914L158.37 114.02L157.47 114.954Z" fill="white"/>
<path d="M160.994 115.658L161.927 116.551L162.821 115.618L161.888 114.724L160.994 115.658Z" fill="white"/>
<path d="M171.591 108.033L168.694 108.564L169.224 111.454L172.121 110.923L171.591 108.033Z" fill="white"/>
<path d="M167.233 109.356L164.909 109.782L165.334 112.099L167.658 111.674L167.233 109.356Z" fill="white"/>
<path d="M171.723 112.599L169.399 113.025L169.824 115.342L172.147 114.916L171.723 112.599Z" fill="white"/>
<path d="M168.004 113.02L166.194 113.351L166.525 115.155L168.334 114.823L168.004 113.02Z" fill="white"/>
<path d="M171.522 116.452L169.712 116.783L170.043 118.586L171.852 118.255L171.522 116.452Z" fill="white"/>
<path d="M165.291 113.758L163.481 114.089L163.812 115.899L165.622 115.568L165.291 113.758Z" fill="white"/>
<path d="M168.578 116.126L166.768 116.457L167.099 118.26L168.908 117.929L168.578 116.126Z" fill="white"/>
<path d="M165.741 116.437L164.465 116.671L164.698 117.94L165.974 117.706L165.741 116.437Z" fill="white"/>
<path d="M168.181 119.063L166.905 119.296L167.137 120.566L168.413 120.332L168.181 119.063Z" fill="white"/>
<path d="M177.301 118.044L176.037 120.698L178.698 121.962L179.962 119.308L177.301 118.044Z" fill="white"/>
<path d="M173.532 116.817L172.513 118.948L174.65 119.961L175.663 117.83L173.532 116.817Z" fill="white"/>
<path d="M175.271 122.068L174.258 124.192L176.396 125.205L177.409 123.08L175.271 122.068Z" fill="white"/>
<path d="M172.483 120.463L171.695 122.124L173.356 122.912L174.144 121.25L172.483 120.463Z" fill="white"/>
<path d="M173.324 125.302L172.529 126.963L174.191 127.75L174.985 126.096L173.324 125.302Z" fill="white"/>
<path d="M169.849 119.477L169.055 121.138L170.716 121.926L171.51 120.265L169.849 119.477Z" fill="white"/>
<path d="M171.127 123.32L170.333 124.974L171.994 125.768L172.789 124.107L171.127 123.32Z" fill="white"/>
<path d="M169.13 122.145L168.574 123.31L169.739 123.866L170.295 122.701L169.13 122.145Z" fill="white"/>
<path d="M169.566 125.707L169.011 126.872L170.177 127.427L170.731 126.261L169.566 125.707Z" fill="white"/>
<path d="M178.739 130.758L176.158 132.174L177.574 134.749L180.155 133.339L178.739 130.758Z" fill="white"/>
<path d="M176.4 127.557L174.329 128.689L175.46 130.754L177.532 129.622L176.4 127.557Z" fill="white"/>
<path d="M174.734 132.834L172.663 133.966L173.801 136.031L175.873 134.899L174.734 132.834Z" fill="white"/>
<path d="M173.406 129.9L171.792 130.787L172.679 132.395L174.293 131.508L173.406 129.9Z" fill="white"/>
<path d="M171.254 134.319L169.639 135.199L170.519 136.807L172.134 135.927L171.254 134.319Z" fill="white"/>
<path d="M171.851 127.566L170.236 128.447L171.123 130.061L172.738 129.174L171.851 127.566Z" fill="white"/>
<path d="M170.64 131.418L169.025 132.298L169.912 133.913L171.527 133.026L170.64 131.418Z" fill="white"/>
<path d="M169.696 129.308L168.564 129.93L169.186 131.062L170.318 130.447L169.696 129.308Z" fill="white"/>
<path d="M167.973 132.448L166.842 133.07L167.464 134.202L168.596 133.586L167.973 132.448Z" fill="white"/>
<path d="M169.529 141.55L169.168 144.467L172.091 144.828L172.452 141.912L169.529 141.55Z" fill="white"/>
<path d="M170.075 137.651L169.786 139.989L172.13 140.28L172.42 137.941L170.075 137.651Z" fill="white"/>
<path d="M165.639 140.954L165.35 143.292L167.695 143.582L167.984 141.244L165.639 140.954Z" fill="white"/>
<path d="M166.801 137.872L166.575 139.698L168.401 139.923L168.627 138.098L166.801 137.872Z" fill="white"/>
<path d="M162.468 140.188L162.243 142.013L164.068 142.239L164.294 140.413L162.468 140.188Z" fill="white"/>
<path d="M166.901 135.058L166.675 136.884L168.501 137.11L168.727 135.284L166.901 135.058Z" fill="white"/>
<path d="M163.657 137.476L163.431 139.302L165.257 139.528L165.483 137.702L163.657 137.476Z" fill="white"/>
<path d="M164.687 135.293L164.529 136.574L165.81 136.733L165.968 135.452L164.687 135.293Z" fill="white"/>
<path d="M161.446 136.828L161.288 138.109L162.575 138.268L162.734 136.987L161.446 136.828Z" fill="white"/>
<path d="M160.815 147.264L158.657 145.265L156.652 147.416L158.81 149.421L160.815 147.264Z" fill="white"/>
<path d="M160.414 106.085L158.257 104.086L156.251 106.237L158.409 108.236L160.414 106.085Z" fill="white"/>
<path d="M163.111 144.036L161.384 142.434L159.776 144.162L161.503 145.77L163.111 144.036Z" fill="white"/>
<path d="M157.574 144.13L155.847 142.528L154.239 144.256L155.973 145.864L157.574 144.13Z" fill="white"/>
<path d="M159.947 141.943L158.597 140.692L157.346 142.043L158.69 143.293L159.947 141.943Z" fill="white"/>
<path d="M155.071 141.299L153.721 140.048L152.47 141.392L153.813 142.643L155.071 141.299Z" fill="white"/>
<path d="M161.673 139.738L160.329 138.487L159.078 139.831L160.422 141.082L161.673 139.738Z" fill="white"/>
<path d="M157.621 139.806L156.271 138.555L155.02 139.899L156.37 141.15L157.621 139.806Z" fill="white"/>
<path d="M159.34 138.253L158.386 137.373L157.506 138.319L158.459 139.199L159.34 138.253Z" fill="white"/>
<path d="M155.805 137.609L154.852 136.729L153.972 137.675L154.925 138.555L155.805 137.609Z" fill="white"/>
<path d="M147.654 141.949L144.766 142.527L145.343 145.409L148.231 144.83L147.654 141.949Z" fill="white"/>
<path d="M151.532 141.24L149.215 141.704L149.678 144.014L151.995 143.55L151.532 141.24Z" fill="white"/>
<path d="M146.983 138.074L144.666 138.539L145.129 140.849L147.446 140.385L146.983 138.074Z" fill="white"/>
<path d="M150.289 138.203L148.485 138.565L148.846 140.369L150.65 140.007L150.289 138.203Z" fill="white"/>
<path d="M152.985 137.422L151.181 137.784L151.543 139.588L153.347 139.226L152.985 137.422Z" fill="white"/>
<path d="M149.664 135.107L147.86 135.468L148.222 137.272L150.026 136.911L149.664 135.107Z" fill="white"/>
<path d="M152.069 135.385L150.798 135.64L151.051 136.905L152.323 136.651L152.069 135.385Z" fill="white"/>
<path d="M149.576 132.81L148.304 133.065L148.558 134.331L149.83 134.076L149.576 132.81Z" fill="white"/>
<path d="M139.459 135.489L140.677 132.816L137.997 131.598L136.779 134.272L139.459 135.489Z" fill="white"/>
<path d="M143.252 136.661L144.232 134.516L142.081 133.537L141.102 135.688L143.252 136.661Z" fill="white"/>
<path d="M141.42 131.445L142.399 129.301L140.249 128.321L139.269 130.466L141.42 131.445Z" fill="white"/>
<path d="M143.337 130.559L142.573 132.233L144.247 132.996L145.011 131.323L143.337 130.559Z" fill="white"/>
<path d="M146.481 137.174L147.242 135.5L145.567 134.739L144.806 136.413L146.481 137.174Z" fill="white"/>
<path d="M142.409 125.729L141.646 127.403L143.319 128.167L144.083 126.493L142.409 125.729Z" fill="white"/>
<path d="M145.977 131.494L145.214 133.168L146.887 133.931L147.651 132.257L145.977 131.494Z" fill="white"/>
<path d="M144.639 127.685L143.875 129.359L145.549 130.123L146.313 128.449L144.639 127.685Z" fill="white"/>
<path d="M147.57 131.256L148.106 130.084L146.928 129.548L146.392 130.72L147.57 131.256Z" fill="white"/>
<path d="M147.066 127.711L147.602 126.533L146.424 125.996L145.888 127.175L147.066 127.711Z" fill="white"/>
<path d="M137.811 122.81L140.372 121.354L138.91 118.799L136.355 120.255L137.811 122.81Z" fill="white"/>
<path d="M140.207 125.97L142.258 124.799L141.087 122.754L139.035 123.918L140.207 125.97Z" fill="white"/>
<path d="M141.782 120.667L143.834 119.496L142.663 117.451L140.611 118.616L141.782 120.667Z" fill="white"/>
<path d="M143.16 123.574L144.761 122.667L143.848 121.072L142.246 121.979L143.16 123.574Z" fill="white"/>
<path d="M145.236 119.121L146.837 118.214L145.924 116.619L144.329 117.526L145.236 119.121Z" fill="white"/>
<path d="M144.755 125.881L146.35 124.975L145.443 123.38L143.842 124.286L144.755 125.881Z" fill="white"/>
<path d="M145.903 122.004L147.505 121.097L146.592 119.502L144.997 120.409L145.903 122.004Z" fill="white"/>
<path d="M146.874 124.109L147.999 123.467L147.357 122.342L146.232 122.984L146.874 124.109Z" fill="white"/>
<path d="M148.546 120.936L149.671 120.301L149.029 119.176L147.904 119.818L148.546 120.936Z" fill="white"/>
<path d="M144.238 108.636L143.925 111.558L146.854 111.871L147.166 108.949L144.238 108.636Z" fill="white"/>
<path d="M144.266 113.178L144.015 115.521L146.365 115.773L146.615 113.43L144.266 113.178Z" fill="white"/>
<path d="M148.645 109.799L148.394 112.141L150.744 112.393L150.995 110.05L148.645 109.799Z" fill="white"/>
<path d="M147.996 113.484L147.8 115.307L149.63 115.502L149.825 113.68L147.996 113.484Z" fill="white"/>
<path d="M152.294 111.081L152.099 112.904L153.929 113.099L154.123 111.276L152.294 111.081Z" fill="white"/>
<path d="M147.936 116.275L147.74 118.105L149.57 118.3L149.765 116.471L147.936 116.275Z" fill="white"/>
<path d="M151.144 113.804L150.948 115.634L152.777 115.829L152.973 114L151.144 113.804Z" fill="white"/>
<path d="M150.648 116.616L150.51 117.899L151.8 118.037L151.938 116.754L150.648 116.616Z" fill="white"/>
<path d="M153.861 115.028L153.725 116.311L155.015 116.448L155.151 115.165L153.861 115.028Z" fill="white"/>
<path d="M167.62 128.555C167.402 128.43 167.005 128.224 166.455 128.053C165.661 127.801 164.556 127.609 163.239 127.814C162.796 127.887 162.332 128 161.849 128.172C161.803 128.185 161.757 128.205 161.71 128.218C161.465 128.311 161.22 128.423 160.976 128.549C160.764 128.655 160.559 128.774 160.347 128.9C159.87 129.184 159.4 129.508 158.944 129.859C158.427 126.722 158.679 123.817 158.798 122.387C158.798 122.381 158.805 122.374 158.818 122.381C159.93 123.082 159.619 125.028 159.387 125.591C159.387 125.604 159.4 125.61 159.407 125.597C160.79 123.962 160.115 122.162 159.831 121.706C159.824 121.692 159.837 121.686 159.85 121.692C160.049 121.858 160.215 122.03 160.353 122.202C160.784 122.751 160.936 123.34 160.982 123.857C161.002 124.134 160.995 124.386 160.982 124.604C160.982 124.664 160.976 124.717 160.969 124.77C160.969 124.776 160.976 124.783 160.982 124.776C160.982 124.776 160.982 124.776 160.989 124.776C161.359 124.042 161.538 122.937 160.982 121.858C160.83 121.567 160.625 121.276 160.353 120.998C160.274 120.918 160.195 120.839 160.102 120.759C160.095 120.753 160.102 120.74 160.108 120.74C160.195 120.759 160.274 120.786 160.347 120.812C160.585 120.892 160.79 121.004 160.976 121.143C161.399 121.454 161.684 121.878 161.849 122.321C161.988 122.685 162.054 123.062 162.054 123.4C162.054 123.413 162.074 123.413 162.074 123.4C162.332 122.447 162.18 121.726 161.849 121.196C161.617 120.819 161.293 120.541 160.976 120.349C160.757 120.217 160.539 120.124 160.347 120.071C160.234 120.038 160.135 120.011 160.049 120.005C160.036 120.005 160.036 119.985 160.049 119.985C160.155 119.978 160.254 119.972 160.347 119.972C160.578 119.972 160.79 119.985 160.976 120.025C161.346 120.091 161.631 120.223 161.849 120.369C162.2 120.607 162.378 120.885 162.438 120.998C162.438 121.011 162.458 120.998 162.458 120.991C162.412 120.488 162.173 120.091 161.849 119.806C161.598 119.588 161.293 119.436 160.976 119.343C160.77 119.283 160.552 119.257 160.347 119.25C160.062 119.25 159.797 119.297 159.566 119.389C159.559 119.389 159.546 119.383 159.553 119.37C159.758 119.078 160.042 118.9 160.347 118.807C160.559 118.741 160.777 118.721 160.976 118.734C161.167 118.747 161.346 118.787 161.492 118.853C161.498 118.853 161.512 118.847 161.505 118.833C161.346 118.655 161.167 118.509 160.976 118.403C160.777 118.291 160.565 118.225 160.347 118.198C159.784 118.132 159.215 118.37 158.838 118.946C158.838 118.952 158.825 118.952 158.818 118.946C158.745 118.814 158.672 118.675 158.606 118.522C158.454 118.172 158.328 117.775 158.262 117.384C158.262 117.371 158.242 117.371 158.242 117.384C158.176 117.781 158.05 118.178 157.898 118.529C157.832 118.681 157.766 118.82 157.693 118.952C157.693 118.959 157.68 118.959 157.673 118.952C157.011 117.947 155.76 117.967 155.006 118.833C154.999 118.84 155.006 118.853 155.019 118.853C155.522 118.615 156.482 118.681 156.958 119.37C156.958 119.376 156.958 119.389 156.945 119.389C156.204 119.078 155.066 119.283 154.457 120.005C154.238 120.263 154.086 120.587 154.053 120.978C154.053 120.991 154.066 120.998 154.073 120.984C154.119 120.892 154.238 120.706 154.457 120.514C154.814 120.203 155.436 119.879 156.462 119.978C156.475 119.978 156.475 119.998 156.462 119.998C155.939 120.064 154.854 120.534 154.457 121.6C154.278 122.076 154.238 122.665 154.43 123.393C154.43 123.407 154.45 123.407 154.45 123.393C154.45 123.38 154.45 123.36 154.45 123.347C154.463 122.374 155.019 121.07 156.396 120.74C156.409 120.74 156.416 120.753 156.409 120.759C154.867 122.116 155.019 123.784 155.522 124.776C155.522 124.79 155.542 124.776 155.542 124.776C155.476 124.029 155.423 122.698 156.661 121.692C156.667 121.686 156.687 121.692 156.68 121.706C156.396 122.162 155.721 123.962 157.104 125.597C157.111 125.604 157.13 125.597 157.124 125.591C156.892 125.035 156.581 123.082 157.686 122.381C157.693 122.381 157.7 122.381 157.706 122.387C157.825 123.817 158.077 126.722 157.561 129.859C156.667 129.178 155.727 128.575 154.794 128.224C154.682 128.185 154.563 128.145 154.457 128.105C153.497 127.788 152.61 127.702 151.843 127.735C150.612 127.788 149.665 128.158 149.149 128.416C149.043 128.469 148.957 128.516 148.884 128.555C148.858 128.569 148.878 128.608 148.904 128.602C148.984 128.575 149.063 128.555 149.142 128.529C150.089 128.264 150.989 128.192 151.836 128.264C152.763 128.344 153.636 128.602 154.45 128.966C155.595 129.482 156.627 130.21 157.561 130.991C156.244 132.143 155.132 133.254 154.45 133.651C154.417 133.671 154.384 133.691 154.351 133.704C154.192 133.486 153.907 133.354 153.596 133.42C153.332 133.479 153.113 133.691 153.054 133.956C153.001 134.194 153.06 134.452 153.193 134.585C153.55 134.942 153.967 134.968 154.444 134.77C155.357 134.386 156.488 133.182 157.885 131.904C157.997 131.798 158.116 131.693 158.242 131.586C158.361 131.693 158.481 131.798 158.593 131.904C159.228 132.48 159.804 133.043 160.334 133.526C160.552 133.724 160.764 133.91 160.962 134.068C161.273 134.32 161.565 134.532 161.836 134.677C162.372 134.955 162.829 134.995 163.226 134.644C163.246 134.624 163.272 134.611 163.292 134.585C163.385 134.492 163.49 134.194 163.431 133.956C163.398 133.817 163.325 133.698 163.226 133.598C163.133 133.506 163.014 133.446 162.888 133.413C162.584 133.347 162.299 133.473 162.134 133.698C162.041 133.651 161.942 133.592 161.836 133.512C161.584 133.34 161.293 133.095 160.962 132.804C160.764 132.632 160.559 132.44 160.334 132.242C159.903 131.851 159.434 131.421 158.931 130.984C159.374 130.614 159.844 130.256 160.334 129.925C160.539 129.786 160.75 129.654 160.962 129.528C161.247 129.363 161.538 129.204 161.836 129.058C162.286 128.847 162.749 128.661 163.226 128.529C164.218 128.244 165.291 128.145 166.442 128.33C166.813 128.39 167.197 128.476 167.587 128.602C167.62 128.608 167.64 128.569 167.614 128.555" fill="white"/>
<path d="M110.693 171.795V158.029H112.098V171.795H110.693ZM122.229 171.795V166.528C122.229 165.954 122.175 165.428 122.067 164.95C121.958 164.466 121.783 164.045 121.541 163.689C121.305 163.325 120.996 163.045 120.613 162.847C120.237 162.65 119.779 162.551 119.237 162.551C118.74 162.551 118.3 162.637 117.918 162.809C117.542 162.981 117.223 163.23 116.962 163.555C116.707 163.873 116.512 164.262 116.379 164.721C116.245 165.18 116.178 165.702 116.178 166.289L115.184 166.069C115.184 165.011 115.368 164.122 115.738 163.402C116.108 162.682 116.618 162.137 117.268 161.767C117.918 161.397 118.663 161.213 119.505 161.213C120.123 161.213 120.661 161.308 121.12 161.499C121.585 161.691 121.977 161.949 122.296 162.274C122.621 162.599 122.882 162.972 123.08 163.392C123.277 163.806 123.421 164.249 123.51 164.721C123.599 165.186 123.644 165.651 123.644 166.117V171.795H122.229ZM114.763 171.795V161.471H116.034V164.014H116.178V171.795H114.763ZM128.725 171.795L124.977 161.471H126.402L129.451 169.96L132.482 161.471H133.925L130.178 171.795H128.725ZM139.447 172.082C138.44 172.082 137.567 171.859 136.827 171.413C136.094 170.967 135.524 170.339 135.116 169.53C134.708 168.72 134.504 167.771 134.504 166.681C134.504 165.553 134.705 164.578 135.107 163.755C135.508 162.933 136.072 162.299 136.799 161.853C137.532 161.407 138.395 161.184 139.389 161.184C140.409 161.184 141.279 161.42 141.999 161.891C142.719 162.357 143.264 163.026 143.634 163.899C144.003 164.772 144.172 165.814 144.14 167.025H142.706V166.528C142.681 165.189 142.391 164.179 141.837 163.497C141.288 162.815 140.485 162.474 139.428 162.474C138.319 162.474 137.468 162.835 136.875 163.555C136.289 164.275 135.996 165.301 135.996 166.633C135.996 167.933 136.289 168.943 136.875 169.663C137.468 170.377 138.306 170.734 139.389 170.734C140.129 170.734 140.772 170.565 141.32 170.227C141.875 169.883 142.311 169.389 142.63 168.746L143.94 169.252C143.532 170.151 142.93 170.849 142.133 171.346C141.343 171.837 140.447 172.082 139.447 172.082ZM135.498 167.025V165.849H143.385V167.025H135.498ZM149.923 172.072C148.712 172.072 147.715 171.811 146.931 171.289C146.154 170.766 145.676 170.039 145.497 169.109L146.931 168.87C147.084 169.456 147.431 169.925 147.973 170.275C148.521 170.619 149.197 170.791 150 170.791C150.784 170.791 151.402 170.629 151.854 170.304C152.307 169.972 152.533 169.523 152.533 168.956C152.533 168.637 152.46 168.379 152.313 168.182C152.173 167.978 151.883 167.79 151.443 167.618C151.004 167.446 150.347 167.242 149.474 167.006C148.537 166.751 147.804 166.496 147.275 166.241C146.746 165.986 146.37 165.693 146.147 165.362C145.924 165.024 145.813 164.613 145.813 164.128C145.813 163.542 145.978 163.029 146.31 162.589C146.641 162.143 147.1 161.799 147.686 161.557C148.273 161.308 148.955 161.184 149.732 161.184C150.51 161.184 151.204 161.311 151.816 161.566C152.434 161.815 152.931 162.165 153.307 162.618C153.683 163.07 153.906 163.596 153.977 164.195L152.543 164.453C152.447 163.848 152.144 163.37 151.634 163.019C151.131 162.663 150.49 162.478 149.713 162.465C148.98 162.446 148.384 162.586 147.925 162.886C147.466 163.179 147.237 163.571 147.237 164.061C147.237 164.335 147.32 164.571 147.486 164.769C147.651 164.96 147.951 165.142 148.384 165.314C148.824 165.486 149.448 165.674 150.258 165.878C151.207 166.12 151.953 166.375 152.495 166.643C153.037 166.91 153.422 167.226 153.652 167.589C153.881 167.952 153.996 168.401 153.996 168.937C153.996 169.912 153.632 170.68 152.906 171.241C152.186 171.795 151.192 172.072 149.923 172.072ZM161.546 171.795C160.966 171.916 160.392 171.964 159.825 171.939C159.264 171.913 158.761 171.792 158.315 171.575C157.875 171.359 157.54 171.021 157.311 170.562C157.126 170.18 157.024 169.794 157.005 169.405C156.992 169.01 156.986 168.561 156.986 168.057V158.603H158.381V168C158.381 168.433 158.385 168.797 158.391 169.09C158.404 169.377 158.471 169.631 158.592 169.855C158.821 170.282 159.185 170.536 159.682 170.619C160.185 170.702 160.806 170.683 161.546 170.562V171.795ZM154.777 162.675V161.471H161.546V162.675H154.777ZM175.702 171.795L175.711 165.017C175.711 164.221 175.488 163.596 175.042 163.144C174.602 162.685 174.041 162.455 173.359 162.455C172.971 162.455 172.591 162.545 172.222 162.723C171.852 162.901 171.546 163.188 171.304 163.583C171.068 163.979 170.95 164.495 170.95 165.132L170.119 164.893C170.1 164.154 170.243 163.507 170.549 162.952C170.861 162.398 171.288 161.968 171.83 161.662C172.378 161.35 172.996 161.193 173.684 161.193C174.723 161.193 175.555 161.515 176.179 162.159C176.804 162.796 177.116 163.66 177.116 164.75L177.107 171.795H175.702ZM163.379 171.795V161.471H164.641V164.014H164.794V171.795H163.379ZM169.555 171.795L169.564 165.113C169.564 164.291 169.344 163.644 168.905 163.172C168.471 162.694 167.898 162.455 167.184 162.455C166.47 162.455 165.893 162.701 165.454 163.191C165.014 163.676 164.794 164.323 164.794 165.132L163.953 164.673C163.953 164.01 164.109 163.418 164.421 162.895C164.733 162.366 165.16 161.952 165.702 161.652C166.244 161.346 166.859 161.193 167.547 161.193C168.204 161.193 168.787 161.334 169.297 161.614C169.813 161.895 170.217 162.302 170.511 162.838C170.804 163.373 170.95 164.023 170.95 164.788L170.941 171.795H169.555ZM183.717 172.082C182.71 172.082 181.837 171.859 181.097 171.413C180.365 170.967 179.794 170.339 179.386 169.53C178.978 168.72 178.774 167.771 178.774 166.681C178.774 165.553 178.975 164.578 179.377 163.755C179.778 162.933 180.342 162.299 181.069 161.853C181.802 161.407 182.665 161.184 183.659 161.184C184.679 161.184 185.549 161.42 186.269 161.891C186.989 162.357 187.534 163.026 187.904 163.899C188.274 164.772 188.443 165.814 188.411 167.025H186.977V166.528C186.951 165.189 186.661 164.179 186.107 163.497C185.559 162.815 184.756 162.474 183.698 162.474C182.589 162.474 181.738 162.835 181.145 163.555C180.559 164.275 180.266 165.301 180.266 166.633C180.266 167.933 180.559 168.943 181.145 169.663C181.738 170.377 182.576 170.734 183.659 170.734C184.399 170.734 185.042 170.565 185.591 170.227C186.145 169.883 186.582 169.389 186.9 168.746L188.21 169.252C187.802 170.151 187.2 170.849 186.403 171.346C185.613 171.837 184.717 172.082 183.717 172.082ZM179.769 167.025V165.849H187.655V167.025H179.769ZM197.517 171.795V166.528C197.517 165.954 197.463 165.428 197.355 164.95C197.247 164.466 197.071 164.045 196.829 163.689C196.593 163.325 196.284 163.045 195.902 162.847C195.526 162.65 195.067 162.551 194.525 162.551C194.028 162.551 193.588 162.637 193.206 162.809C192.83 162.981 192.511 163.23 192.25 163.555C191.995 163.873 191.801 164.262 191.667 164.721C191.533 165.18 191.466 165.702 191.466 166.289L190.472 166.069C190.472 165.011 190.657 164.122 191.026 163.402C191.396 162.682 191.906 162.137 192.556 161.767C193.206 161.397 193.952 161.213 194.793 161.213C195.411 161.213 195.95 161.308 196.408 161.499C196.874 161.691 197.266 161.949 197.584 162.274C197.909 162.599 198.171 162.972 198.368 163.392C198.566 163.806 198.709 164.249 198.798 164.721C198.888 165.186 198.932 165.651 198.932 166.117V171.795H197.517ZM190.051 171.795V161.471H191.323V164.014H191.466V171.795H190.051ZM206.843 171.795C206.263 171.916 205.689 171.964 205.122 171.939C204.561 171.913 204.058 171.792 203.612 171.575C203.172 171.359 202.837 171.021 202.608 170.562C202.423 170.18 202.321 169.794 202.302 169.405C202.289 169.01 202.283 168.561 202.283 168.057V158.603H203.679V168C203.679 168.433 203.682 168.797 203.688 169.09C203.701 169.377 203.768 169.631 203.889 169.855C204.118 170.282 204.482 170.536 204.979 170.619C205.482 170.702 206.104 170.683 206.843 170.562V171.795ZM200.075 162.675V161.471H206.843V162.675H200.075ZM130.592 195.082C129.63 195.082 128.763 194.923 127.992 194.604C127.227 194.279 126.593 193.82 126.089 193.227C125.592 192.635 125.267 191.93 125.114 191.115L126.548 190.876C126.778 191.768 127.262 192.469 128.001 192.979C128.741 193.482 129.623 193.734 130.649 193.734C131.325 193.734 131.93 193.629 132.466 193.419C133.001 193.202 133.422 192.896 133.727 192.501C134.033 192.106 134.186 191.637 134.186 191.096C134.186 190.739 134.123 190.436 133.995 190.187C133.868 189.932 133.699 189.722 133.488 189.556C133.278 189.391 133.049 189.254 132.8 189.145C132.552 189.031 132.309 188.938 132.074 188.868L128.584 187.826C128.164 187.705 127.775 187.552 127.418 187.367C127.061 187.176 126.749 186.95 126.481 186.689C126.22 186.421 126.016 186.109 125.869 185.752C125.723 185.395 125.65 184.987 125.65 184.528C125.65 183.751 125.854 183.078 126.261 182.511C126.669 181.944 127.227 181.507 127.934 181.201C128.642 180.895 129.448 180.746 130.353 180.752C131.271 180.752 132.09 180.915 132.81 181.24C133.536 181.565 134.135 182.03 134.607 182.635C135.079 183.234 135.391 183.945 135.544 184.767L134.072 185.035C133.976 184.436 133.756 183.916 133.412 183.477C133.068 183.037 132.628 182.699 132.093 182.463C131.564 182.221 130.981 182.097 130.343 182.09C129.725 182.09 129.174 182.196 128.69 182.406C128.212 182.61 127.832 182.89 127.552 183.247C127.272 183.604 127.131 184.012 127.131 184.471C127.131 184.936 127.259 185.309 127.514 185.589C127.775 185.87 128.094 186.089 128.47 186.249C128.852 186.408 129.222 186.539 129.579 186.641L132.274 187.434C132.555 187.511 132.883 187.622 133.259 187.769C133.641 187.909 134.011 188.113 134.368 188.381C134.731 188.642 135.031 188.986 135.267 189.413C135.502 189.84 135.62 190.382 135.62 191.038C135.62 191.676 135.493 192.246 135.238 192.749C134.989 193.253 134.636 193.677 134.177 194.021C133.724 194.365 133.192 194.626 132.58 194.805C131.975 194.99 131.312 195.082 130.592 195.082ZM141.771 195.082C140.764 195.082 139.891 194.859 139.152 194.413C138.419 193.967 137.849 193.339 137.441 192.53C137.033 191.72 136.829 190.771 136.829 189.681C136.829 188.553 137.03 187.578 137.431 186.755C137.833 185.933 138.397 185.299 139.123 184.853C139.856 184.407 140.72 184.184 141.714 184.184C142.734 184.184 143.603 184.42 144.324 184.891C145.044 185.357 145.589 186.026 145.958 186.899C146.328 187.772 146.497 188.814 146.465 190.025H145.031V189.528C145.006 188.189 144.716 187.179 144.161 186.497C143.613 185.815 142.81 185.474 141.752 185.474C140.643 185.474 139.792 185.835 139.2 186.555C138.613 187.275 138.32 188.301 138.32 189.633C138.32 190.933 138.613 191.943 139.2 192.663C139.792 193.377 140.63 193.734 141.714 193.734C142.453 193.734 143.097 193.565 143.645 193.227C144.199 192.883 144.636 192.389 144.955 191.746L146.264 192.252C145.856 193.151 145.254 193.849 144.457 194.346C143.667 194.837 142.772 195.082 141.771 195.082ZM137.823 190.025V188.849H145.71V190.025H137.823ZM152.678 195.082C151.639 195.082 150.76 194.849 150.04 194.384C149.319 193.919 148.771 193.278 148.395 192.463C148.026 191.64 147.834 190.697 147.822 189.633C147.834 188.55 148.032 187.6 148.414 186.784C148.797 185.962 149.348 185.325 150.068 184.872C150.788 184.413 151.662 184.184 152.688 184.184C153.733 184.184 154.641 184.439 155.412 184.949C156.19 185.459 156.722 186.156 157.009 187.042L155.632 187.482C155.39 186.864 155.004 186.386 154.475 186.048C153.953 185.704 153.354 185.532 152.678 185.532C151.92 185.532 151.292 185.707 150.795 186.058C150.298 186.402 149.928 186.883 149.686 187.501C149.444 188.119 149.319 188.83 149.313 189.633C149.326 190.869 149.613 191.864 150.173 192.616C150.734 193.361 151.569 193.734 152.678 193.734C153.379 193.734 153.975 193.575 154.466 193.256C154.963 192.931 155.339 192.459 155.594 191.841L157.009 192.262C156.626 193.18 156.065 193.881 155.326 194.365C154.587 194.843 153.704 195.082 152.678 195.082ZM164.412 194.795C163.832 194.916 163.258 194.964 162.691 194.939C162.13 194.913 161.627 194.792 161.181 194.575C160.741 194.359 160.406 194.021 160.177 193.562C159.992 193.18 159.89 192.794 159.871 192.405C159.858 192.01 159.852 191.561 159.852 191.057V181.603H161.248V191C161.248 191.433 161.251 191.797 161.257 192.09C161.27 192.377 161.337 192.631 161.458 192.855C161.687 193.282 162.051 193.536 162.548 193.619C163.051 193.702 163.672 193.683 164.412 193.562V194.795ZM157.644 185.675V184.471H164.412V185.675H157.644ZM170.193 195.082C169.167 195.082 168.29 194.849 167.564 194.384C166.837 193.919 166.28 193.275 165.891 192.453C165.502 191.631 165.308 190.688 165.308 189.623C165.308 188.54 165.505 187.59 165.9 186.775C166.296 185.959 166.856 185.325 167.583 184.872C168.316 184.413 169.186 184.184 170.193 184.184C171.225 184.184 172.105 184.417 172.831 184.882C173.564 185.341 174.122 185.981 174.504 186.803C174.893 187.619 175.087 188.559 175.087 189.623C175.087 190.707 174.893 191.66 174.504 192.482C174.115 193.297 173.554 193.935 172.822 194.394C172.089 194.853 171.212 195.082 170.193 195.082ZM170.193 193.734C171.34 193.734 172.194 193.355 172.755 192.596C173.316 191.832 173.596 190.841 173.596 189.623C173.596 188.374 173.312 187.38 172.745 186.641C172.184 185.901 171.333 185.532 170.193 185.532C169.422 185.532 168.784 185.707 168.281 186.058C167.784 186.402 167.411 186.883 167.162 187.501C166.92 188.113 166.799 188.82 166.799 189.623C166.799 190.866 167.086 191.864 167.659 192.616C168.233 193.361 169.077 193.734 170.193 193.734ZM177.005 194.795V184.471H178.267V186.956L178.018 186.631C178.133 186.325 178.283 186.045 178.467 185.79C178.652 185.529 178.853 185.315 179.07 185.149C179.337 184.914 179.65 184.735 180.007 184.614C180.363 184.487 180.724 184.413 181.087 184.394C181.45 184.369 181.781 184.394 182.081 184.471V185.79C181.705 185.694 181.294 185.672 180.848 185.723C180.402 185.774 179.991 185.952 179.615 186.258C179.27 186.526 179.012 186.848 178.84 187.224C178.668 187.594 178.553 187.989 178.496 188.409C178.439 188.824 178.41 189.235 178.41 189.643V194.795H177.005ZM187.182 195.072C185.972 195.072 184.974 194.811 184.19 194.289C183.413 193.766 182.935 193.039 182.756 192.109L184.19 191.87C184.343 192.456 184.691 192.925 185.232 193.275C185.78 193.619 186.456 193.791 187.259 193.791C188.043 193.791 188.661 193.629 189.113 193.304C189.566 192.972 189.792 192.523 189.792 191.956C189.792 191.637 189.719 191.379 189.572 191.182C189.432 190.978 189.142 190.79 188.702 190.618C188.263 190.446 187.606 190.242 186.733 190.006C185.796 189.751 185.063 189.496 184.534 189.241C184.005 188.986 183.629 188.693 183.406 188.362C183.183 188.024 183.072 187.613 183.072 187.128C183.072 186.542 183.237 186.029 183.569 185.589C183.9 185.143 184.359 184.799 184.945 184.557C185.532 184.308 186.214 184.184 186.991 184.184C187.769 184.184 188.463 184.311 189.075 184.566C189.693 184.815 190.191 185.165 190.567 185.618C190.943 186.07 191.166 186.596 191.236 187.195L189.802 187.453C189.706 186.848 189.403 186.37 188.894 186.019C188.39 185.663 187.75 185.478 186.972 185.465C186.239 185.446 185.643 185.586 185.184 185.886C184.726 186.179 184.496 186.571 184.496 187.061C184.496 187.335 184.579 187.571 184.745 187.769C184.91 187.96 185.21 188.142 185.643 188.314C186.083 188.486 186.708 188.674 187.517 188.878C188.467 189.12 189.212 189.375 189.754 189.643C190.296 189.91 190.681 190.226 190.911 190.589C191.14 190.952 191.255 191.401 191.255 191.937C191.255 192.912 190.892 193.68 190.165 194.241C189.445 194.795 188.451 195.072 187.182 195.072Z" fill="white"/>
<defs>
<filter id="filter0_di_4540_19473" x="-7.62939e-06" y="2.69413e-05" width="314.344" height="314.344" filterUnits="userSpaceOnUse" color-interpolation-filters="sRGB">
<feFlood flood-opacity="0" result="BackgroundImageFix"/>
<feColorMatrix in="SourceAlpha" type="matrix" values="0 0 0 0 0 0 0 0 0 0 0 0 0 0 0 0 0 0 127 0" result="hardAlpha"/>
<feOffset dy="2.24933"/>
<feGaussianBlur stdDeviation="29.2413"/>
<feComposite in2="hardAlpha" operator="out"/>
<feColorMatrix type="matrix" values="0 0 0 0 0 0 0 0 0 0 0 0 0 0 0 0 0 0 0.09 0"/>
<feBlend mode="normal" in2="BackgroundImageFix" result="effect1_dropShadow_4540_19473"/>
<feBlend mode="normal" in="SourceGraphic" in2="effect1_dropShadow_4540_19473" result="shape"/>
<feColorMatrix in="SourceAlpha" type="matrix" values="0 0 0 0 0 0 0 0 0 0 0 0 0 0 0 0 0 0 127 0" result="hardAlpha"/>
<feOffset dy="13.496"/>
<feGaussianBlur stdDeviation="12.3713"/>
<feComposite in2="hardAlpha" operator="arithmetic" k2="-1" k3="1"/>
<feColorMatrix type="matrix" values="0 0 0 0 0 0 0 0 0 0 0 0 0 0 0 0 0 0 0.65 0"/>
<feBlend mode="normal" in2="shape" result="effect2_innerShadow_4540_19473"/>
</filter>
</defs>
</svg>
