<svg xmlns="http://www.w3.org/2000/svg" width="26" height="26" viewBox="0 0 26 26" fill="none">
  <g clip-path="url(#clip0_4540_19719)">
    <path d="M11.6528 16.8999C11.63 17.0537 11.5967 17.2057 11.5531 17.3549C11.5022 17.5332 11.437 17.7071 11.3581 17.8749C11.3362 17.9198 11.3036 17.9587 11.2632 17.9881C11.2228 18.0176 11.1758 18.0367 11.1263 18.0438C11.0768 18.0509 11.0263 18.0457 10.9793 18.0289C10.9322 18.012 10.89 17.9838 10.8563 17.9468C9.65462 16.6044 8.23104 15.4785 6.6478 14.6184C6.56682 14.5747 6.47257 14.5623 6.38305 14.5837C6.29352 14.605 6.215 14.6586 6.16248 14.7342C6.10995 14.8097 6.0871 14.902 6.09829 14.9934C6.10948 15.0847 6.15392 15.1687 6.22313 15.2294C7.55939 16.3813 8.77969 17.6613 9.8666 19.051C9.89414 19.0876 9.91332 19.1298 9.92277 19.1746C9.93223 19.2195 9.93173 19.2658 9.92132 19.3105C9.9109 19.3551 9.89083 19.3969 9.86251 19.4329C9.83419 19.4689 9.79831 19.4983 9.7574 19.519C9.2621 19.7635 8.72167 19.9032 8.16993 19.9294C7.61818 19.9555 7.06696 19.8676 6.55073 19.6711C2.3604 18.1587 3.07107 15.0431 0.553401 13.4527C0.518698 13.4349 0.489262 13.4083 0.46801 13.3755C0.446758 13.3428 0.434427 13.3051 0.432238 13.2661C0.430048 13.2271 0.438077 13.1883 0.455529 13.1534C0.472981 13.1184 0.49925 13.0887 0.531734 13.0671C1.59773 12.4907 5.07307 10.8917 8.70873 12.2004C9.55667 12.5073 10.2953 13.0575 10.8321 13.7821L11.6528 16.8999Z" fill="#8BA820"/>
    <path d="M13.5031 18.3342C13.4661 18.4325 13.4655 18.5407 13.5015 18.6394C13.5374 18.738 13.6074 18.8205 13.6989 18.872C14.7135 19.3856 15.8575 19.5872 16.9865 19.4512C18.1155 19.3152 19.1789 18.8478 20.0425 18.108C25.2078 13.948 22.6988 9.87903 25.4808 6.41192C25.5205 6.37014 25.5486 6.31866 25.5621 6.26264C25.5756 6.20663 25.5742 6.14804 25.558 6.09274C25.5417 6.03745 25.5112 5.98739 25.4696 5.94758C25.4279 5.90777 25.3765 5.87961 25.3205 5.86592C23.5395 5.56259 17.8715 4.97326 13.3778 8.57469C10.7887 10.6638 10.0711 14.3679 11.7117 16.997C11.7398 17.0431 11.7797 17.0809 11.8273 17.1066C11.8748 17.1322 11.9284 17.1448 11.9824 17.1431C12.0364 17.1413 12.0889 17.1252 12.1347 17.0965C12.1805 17.0678 12.2178 17.0275 12.2429 16.9796C12.8193 15.8621 14.4586 12.9436 16.7496 11.049C16.8259 10.9859 16.9227 10.9531 17.0217 10.9566C17.1206 10.9602 17.2148 10.9999 17.2864 11.0683C17.358 11.1367 17.402 11.229 17.4101 11.3277C17.4182 11.4264 17.3898 11.5246 17.3303 11.6037C15.7341 13.6492 14.4448 15.9166 13.5031 18.3342Z" fill="#9CC824"/>
  </g>
  <defs>
    <clipPath id="clip0_4540_19719">
      <rect width="26" height="26" fill="white"/>
    </clipPath>
  </defs>
</svg>