<svg xmlns="http://www.w3.org/2000/svg" width="12" height="13" viewBox="0 0 12 13" fill="none">
  <path fill-rule="evenodd" clip-rule="evenodd" d="M5.6875 0C2.61013 0 0 2.54306 0 5.6442C0 7.2323 0.671922 8.55989 1.61402 9.65561C2.55206 10.7466 3.7732 11.6265 4.91647 12.3342L4.92399 12.3389L4.93169 12.3432C5.16224 12.4734 5.42269 12.5417 5.6875 12.5417C5.95231 12.5417 6.21276 12.4734 6.44331 12.3432L6.45003 12.3394L6.4566 12.3354C7.60403 11.6333 8.8254 10.7506 9.76304 9.65636C10.7043 8.55783 11.375 7.22705 11.375 5.6442C11.375 2.54306 8.76487 0 5.6875 0ZM5.6875 3.35417C4.39884 3.35417 3.35417 4.39884 3.35417 5.6875C3.35417 6.97616 4.39884 8.02083 5.6875 8.02083C6.97616 8.02083 8.02083 6.97616 8.02083 5.6875C8.02083 4.39884 6.97616 3.35417 5.6875 3.35417Z" fill="#00A7A2"/>
</svg>