          <svg
            xmlns="http://www.w3.org/2000/svg"
            width="44"
            height="46"
            viewBox="0 0 44 46"
            fill="none"
          >
            <path
              d="M19.0775 3.3197L20.7785 4.95435L19.1436 6.6551L17.4429 5.02046L19.0775 3.3197Z"
              fill="white"
            />
            <path
              d="M22.9701 5.02046L24.6774 6.6551L26.3123 4.95435L24.6113 3.3197L22.9701 5.02046Z"
              fill="white"
            />
            <path
              d="M20.577 7.16625L21.9006 8.43699L23.178 7.11332L21.8477 5.84259L20.577 7.16625Z"
              fill="white"
            />
            <path
              d="M25.4435 7.89382L26.7737 9.16455L28.0444 7.84089L26.7208 6.57037L25.4435 7.89382Z"
              fill="white"
            />
            <path
              d="M18.4075 9.19L19.7309 10.4673L21.0083 9.13707L19.678 7.86633L18.4075 9.19Z"
              fill="white"
            />
            <path
              d="M22.86 9.35296L24.1837 10.6237L25.461 9.30003L24.1307 8.0293L22.86 9.35296Z"
              fill="white"
            />
            <path
              d="M21.1144 10.8674L22.0542 11.7608L22.9476 10.8276L22.0145 9.9342L21.1144 10.8674Z"
              fill="white"
            />
            <path
              d="M24.639 11.5714L25.5722 12.4648L26.4656 11.5316L25.5327 10.6382L24.639 11.5714Z"
              fill="white"
            />
            <path
              d="M35.2359 3.94672L32.3391 4.47776L32.869 7.36799L35.7658 6.83694L35.2359 3.94672Z"
              fill="white"
            />
            <path
              d="M30.8782 5.26984L28.5542 5.69546L28.9787 8.01292L31.3028 7.58729L30.8782 5.26984Z"
              fill="white"
            />
            <path
              d="M35.3674 8.51257L33.0434 8.93864L33.4683 11.2561L35.7922 10.8298L35.3674 8.51257Z"
              fill="white"
            />
            <path
              d="M31.649 8.93365L29.8391 9.26506L30.1694 11.0684L31.9791 10.7368L31.649 8.93365Z"
              fill="white"
            />
            <path
              d="M35.1667 12.3654L33.357 12.6968L33.6873 14.5001L35.497 14.1685L35.1667 12.3654Z"
              fill="white"
            />
            <path
              d="M28.9354 9.67157L27.1257 10.0032L27.4571 11.8129L29.2668 11.4813L28.9354 9.67157Z"
              fill="white"
            />
            <path
              d="M32.2229 12.0394L30.4132 12.3711L30.7433 14.1742L32.5532 13.8427L32.2229 12.0394Z"
              fill="white"
            />
            <path
              d="M29.3862 12.3506L28.1102 12.5845L28.343 13.854L29.6188 13.6201L29.3862 12.3506Z"
              fill="white"
            />
            <path
              d="M31.8261 14.9766L30.55 15.21L30.782 16.4794L32.058 16.2462L31.8261 14.9766Z"
              fill="white"
            />
            <path
              d="M40.946 13.9579L39.6821 16.6118L42.3424 17.8759L43.6065 15.222L40.946 13.9579Z"
              fill="white"
            />
            <path
              d="M37.1766 12.731L36.1573 14.8622L38.2949 15.8746L39.3076 13.7436L37.1766 12.731Z"
              fill="white"
            />
            <path
              d="M38.9158 17.9816L37.9031 20.106L40.0407 21.1185L41.0533 18.9941L38.9158 17.9816Z"
              fill="white"
            />
            <path
              d="M36.1273 16.3766L35.3398 18.0379L37.001 18.8254L37.7885 17.1642L36.1273 16.3766Z"
              fill="white"
            />
            <path
              d="M36.9684 21.2153L36.1742 22.8765L37.8354 23.6641L38.6296 22.0094L36.9684 21.2153Z"
              fill="white"
            />
            <path
              d="M33.4937 15.3908L32.6996 17.0518L34.3606 17.8394L35.1547 16.1784L33.4937 15.3908Z"
              fill="white"
            />
            <path
              d="M34.7722 19.2334L33.978 20.8878L35.6392 21.682L36.4334 20.021L34.7722 19.2334Z"
              fill="white"
            />
            <path
              d="M32.7748 18.0586L32.219 19.2235L33.3838 19.7793L33.9397 18.6147L32.7748 18.0586Z"
              fill="white"
            />
            <path
              d="M33.2107 21.6205L32.6561 22.7858L33.8214 23.3403L34.376 22.175L33.2107 21.6205Z"
              fill="white"
            />
            <path
              d="M42.3835 26.6719L39.8023 28.0882L41.2186 30.6626L43.7997 29.2529L42.3835 26.6719Z"
              fill="white"
            />
            <path
              d="M40.0447 23.4711L37.9733 24.6028L39.105 26.6675L41.1765 25.536L40.0447 23.4711Z"
              fill="white"
            />
            <path
              d="M38.3791 28.7477L36.3076 29.8794L37.4461 31.9443L39.5176 30.8126L38.3791 28.7477Z"
              fill="white"
            />
            <path
              d="M37.0512 25.814L35.4365 26.7008L36.3234 28.3089L37.938 27.422L37.0512 25.814Z"
              fill="white"
            />
            <path
              d="M34.8985 30.2327L33.2836 31.1129L34.1638 32.721L35.7787 31.841L34.8985 30.2327Z"
              fill="white"
            />
            <path
              d="M35.496 23.4801L33.8811 24.3603L34.7679 25.975L36.3826 25.0882L35.496 23.4801Z"
              fill="white"
            />
            <path
              d="M34.2845 27.3318L32.6696 28.212L33.5564 29.8267L35.1713 28.9399L34.2845 27.3318Z"
              fill="white"
            />
            <path
              d="M33.3406 25.222L32.2089 25.8442L32.8311 26.9759L33.9628 26.3605L33.3406 25.222Z"
              fill="white"
            />
            <path
              d="M31.6182 28.3618L30.4867 28.9839L31.1087 30.1157L32.2404 29.5001L31.6182 28.3618Z"
              fill="white"
            />
            <path
              d="M33.1737 37.4641L32.813 40.3804L35.7358 40.7419L36.0964 37.8255L33.1737 37.4641Z"
              fill="white"
            />
            <path
              d="M33.7202 33.5648L33.4305 35.9029L35.7752 36.1933L36.0648 33.8552L33.7202 33.5648Z"
              fill="white"
            />
            <path
              d="M29.2842 36.8676L28.9948 39.2057L31.3394 39.4962L31.6291 37.1579L29.2842 36.8676Z"
              fill="white"
            />
            <path
              d="M30.4455 33.7855L30.2197 35.6115L32.0456 35.8372L32.2714 34.0113L30.4455 33.7855Z"
              fill="white"
            />
            <path
              d="M26.1131 36.1013L25.8873 37.9273L27.7132 38.153L27.939 36.3271L26.1131 36.1013Z"
              fill="white"
            />
            <path
              d="M30.5459 30.9718L30.3199 32.7977L32.1458 33.0237L32.3718 31.198L30.5459 30.9718Z"
              fill="white"
            />
            <path
              d="M27.3016 33.3894L27.0754 35.2153L28.9014 35.4416L29.1276 33.6156L27.3016 33.3894Z"
              fill="white"
            />
            <path
              d="M28.332 31.2072L28.1736 32.4878L29.4544 32.6464L29.6128 31.3656L28.332 31.2072Z"
              fill="white"
            />
            <path
              d="M25.0911 32.742L24.9327 34.0228L26.2199 34.1818L26.3783 32.9012L25.0911 32.742Z"
              fill="white"
            />
            <path
              d="M24.4596 43.1773L22.3021 41.1788L20.2967 43.3295L22.4543 45.3349L24.4596 43.1773Z"
              fill="white"
            />
            <path
              d="M24.0587 1.99863L21.9014 0L19.896 2.15083L22.0536 4.14961L24.0587 1.99863Z"
              fill="white"
            />
            <path
              d="M26.7561 39.9497L25.0288 38.348L23.4207 40.0753L25.148 41.6836L26.7561 39.9497Z"
              fill="white"
            />
            <path
              d="M21.2189 40.0434L19.4915 38.442L17.8835 40.1693L19.6174 41.7774L21.2189 40.0434Z"
              fill="white"
            />
            <path
              d="M23.5919 37.857L22.2419 36.6061L20.9909 37.9563L22.3346 39.2071L23.5919 37.857Z"
              fill="white"
            />
            <path
              d="M18.7155 37.2128L17.3655 35.9621L16.1145 37.3055L17.4582 38.5563L18.7155 37.2128Z"
              fill="white"
            />
            <path
              d="M25.3175 35.6522L23.9738 34.4012L22.7231 35.7449L24.0665 36.9956L25.3175 35.6522Z"
              fill="white"
            />
            <path
              d="M21.2654 35.7199L19.9154 34.4692L18.6644 35.8126L20.0147 37.0634L21.2654 35.7199Z"
              fill="white"
            />
            <path
              d="M22.9843 34.1666L22.0311 33.2864L21.1511 34.2327L22.104 35.113L22.9843 34.1666Z"
              fill="white"
            />
            <path
              d="M19.4497 33.5226L18.4967 32.6424L17.6165 33.589L18.5694 34.469L19.4497 33.5226Z"
              fill="white"
            />
            <path
              d="M11.2986 37.8624L8.41104 38.4411L8.98821 41.3224L11.876 40.7437L11.2986 37.8624Z"
              fill="white"
            />
            <path
              d="M15.1768 37.1539L12.8602 37.6182L13.3229 39.9282L15.6395 39.4641L15.1768 37.1539Z"
              fill="white"
            />
            <path
              d="M10.6275 33.9882L8.31088 34.4529L8.77406 36.7629L11.0906 36.2984L10.6275 33.9882Z"
              fill="white"
            />
            <path
              d="M13.9333 34.1172L12.1293 34.4787L12.4908 36.2827L14.2948 35.9212L13.9333 34.1172Z"
              fill="white"
            />
            <path
              d="M16.63 33.3362L14.826 33.6977L15.1875 35.5017L16.9915 35.1402L16.63 33.3362Z"
              fill="white"
            />
            <path
              d="M13.3091 31.0204L11.5051 31.3817L11.8666 33.1857L13.6706 32.8244L13.3091 31.0204Z"
              fill="white"
            />
            <path
              d="M15.7142 31.2989L14.4424 31.5536L14.6956 32.8189L15.9674 32.5643L15.7142 31.2989Z"
              fill="white"
            />
            <path
              d="M13.2207 28.7239L11.9491 28.9791L12.2027 30.2444L13.4746 29.9894L13.2207 28.7239Z"
              fill="white"
            />
            <path
              d="M3.10419 31.4032L4.32199 28.7295L1.6415 27.5117L0.42392 30.1854L3.10419 31.4032Z"
              fill="white"
            />
            <path
              d="M6.89704 32.5745L7.87655 30.4301L5.72557 29.4506L4.74628 31.6015L6.89704 32.5745Z"
              fill="white"
            />
            <path
              d="M5.06458 27.359L6.04409 25.2146L3.89333 24.235L2.91382 26.3794L5.06458 27.359Z"
              fill="white"
            />
            <path
              d="M6.98164 26.4727L6.21823 28.1467L7.89219 28.9101L8.6556 27.2363L6.98164 26.4727Z"
              fill="white"
            />
            <path
              d="M10.1253 33.088L10.8865 31.4136L9.21207 30.6526L8.45108 32.327L10.1253 33.088Z"
              fill="white"
            />
            <path
              d="M6.05391 21.6431L5.29028 23.3171L6.96424 24.0805L7.72765 22.4065L6.05391 21.6431Z"
              fill="white"
            />
            <path
              d="M9.6219 27.4076L8.85828 29.0816L10.5322 29.845L11.2956 28.171L9.6219 27.4076Z"
              fill="white"
            />
            <path
              d="M8.28415 23.5989L7.51987 25.2727L9.19361 26.0367L9.95767 24.3632L8.28415 23.5989Z"
              fill="white"
            />
            <path
              d="M11.2144 27.1695L11.7505 25.9981L10.5724 25.462L10.0365 26.6334L11.2144 27.1695Z"
              fill="white"
            />
            <path
              d="M10.7106 23.6244L11.2467 22.4463L10.0687 21.9102L9.53256 23.0883L10.7106 23.6244Z"
              fill="white"
            />
            <path
              d="M1.45591 18.7233L4.01714 17.2675L2.55468 14.7128L3.05176e-05 16.1687L1.45591 18.7233Z"
              fill="white"
            />
            <path
              d="M3.8517 21.8838L5.90319 20.7124L4.73195 18.6675L2.68024 19.8321L3.8517 21.8838Z"
              fill="white"
            />
            <path
              d="M5.42708 16.5812L7.47857 15.4099L6.30733 13.3648L4.25562 14.5297L5.42708 16.5812Z"
              fill="white"
            />
            <path
              d="M6.80455 19.4873L8.40604 18.5807L7.49285 16.9856L5.89114 17.8924L6.80455 19.4873Z"
              fill="white"
            />
            <path
              d="M8.88032 15.0346L10.4818 14.1278L9.56862 12.5329L7.97372 13.4395L8.88032 15.0346Z"
              fill="white"
            />
            <path
              d="M8.39989 21.7951L9.99478 20.8885L9.08797 19.2934L7.48648 20.2002L8.39989 21.7951Z"
              fill="white"
            />
            <path
              d="M9.54799 17.9174L11.1497 17.0106L10.2363 15.4157L8.64139 16.3223L9.54799 17.9174Z"
              fill="white"
            />
            <path
              d="M10.5183 20.0224L11.6435 19.3804L11.0015 18.2555L9.87637 18.8975L10.5183 20.0224Z"
              fill="white"
            />
            <path
              d="M12.1905 16.85L13.3156 16.2146L12.6736 15.0897L11.5485 15.7317L12.1905 16.85Z"
              fill="white"
            />
            <path
              d="M7.88225 4.54999L7.56995 7.47184L10.4984 7.7848L10.8107 4.86295L7.88225 4.54999Z"
              fill="white"
            />
            <path
              d="M7.91087 9.0921L7.66006 11.4348L10.0094 11.6863L10.2602 9.34357L7.91087 9.0921Z"
              fill="white"
            />
            <path
              d="M12.29 5.7124L12.0392 8.05489L14.3885 8.30636L14.6393 5.96387L12.29 5.7124Z"
              fill="white"
            />
            <path
              d="M11.6403 9.39771L11.4451 11.2203L13.2746 11.4163L13.4696 9.59339L11.6403 9.39771Z"
              fill="white"
            />
            <path
              d="M15.9384 6.99481L15.744 8.81768L17.5734 9.01292L17.7678 7.19006L15.9384 6.99481Z"
              fill="white"
            />
            <path
              d="M11.5809 12.1888L11.385 14.0183L13.2144 14.214L13.4101 12.3847L11.5809 12.1888Z"
              fill="white"
            />
            <path
              d="M14.7884 9.71802L14.5925 11.5475L16.4219 11.7432L16.6178 9.91392L14.7884 9.71802Z"
              fill="white"
            />
            <path
              d="M14.2926 12.5295L14.1552 13.8125L15.445 13.9507L15.5823 12.6674L14.2926 12.5295Z"
              fill="white"
            />
            <path
              d="M17.5058 10.9415L17.3694 12.2248L18.6593 12.3618L18.7959 11.0786L17.5058 10.9415Z"
              fill="white"
            />
            <path
              d="M31.265 24.4692C31.0464 24.3436 30.6494 24.1382 30.1001 23.9663C29.3059 23.7148 28.2008 23.5228 26.8837 23.728C26.4403 23.8009 25.9771 23.9133 25.4939 24.0853C25.4476 24.0987 25.4013 24.1185 25.3549 24.1316C25.11 24.2243 24.8652 24.3368 24.6203 24.4626C24.4086 24.5685 24.2034 24.6875 23.9915 24.8133C23.5151 25.098 23.0452 25.4221 22.5886 25.7729C22.0722 22.636 22.3239 19.7306 22.443 18.3011C22.443 18.2945 22.4495 18.2879 22.4627 18.2945C23.5747 18.996 23.2637 20.9418 23.032 21.5043C23.032 21.5175 23.0452 21.5241 23.0517 21.5109C24.4349 19.8762 23.76 18.0762 23.4754 17.6194C23.4688 17.6062 23.482 17.5996 23.4952 17.6062C23.6937 17.7716 23.8593 17.9438 23.9981 18.1157C24.4283 18.665 24.5805 19.254 24.6269 19.7704C24.6469 20.0482 24.6401 20.2999 24.6269 20.5182C24.6269 20.5777 24.6203 20.6306 24.6137 20.6836C24.6137 20.6902 24.6203 20.697 24.6269 20.6902C24.6269 20.6902 24.6269 20.6902 24.6335 20.6902C25.0042 19.9557 25.1827 18.8504 24.6269 17.7716C24.4747 17.4804 24.2695 17.1894 23.9981 16.9113C23.9188 16.8318 23.8393 16.7525 23.7466 16.673C23.74 16.6665 23.7466 16.6533 23.7532 16.6533C23.8393 16.673 23.9188 16.6996 23.9915 16.726C24.2298 16.8055 24.4349 16.9179 24.6203 17.0569C25.0439 17.3679 25.3284 17.7916 25.4939 18.235C25.633 18.5989 25.6991 18.9762 25.6991 19.3138C25.6991 19.327 25.7188 19.327 25.7188 19.3138C25.9771 18.3606 25.8247 17.6394 25.4939 17.1099C25.2622 16.7326 24.9381 16.4547 24.6203 16.2628C24.402 16.1304 24.1835 16.0377 23.9915 15.9847C23.8791 15.9516 23.7798 15.9252 23.6937 15.9186C23.6805 15.9186 23.6805 15.8987 23.6937 15.8987C23.7996 15.8921 23.8988 15.8855 23.9915 15.8855C24.2232 15.8855 24.4349 15.8987 24.6203 15.9384C24.991 16.0047 25.2754 16.1369 25.4939 16.2826C25.8447 16.5208 26.0232 16.7989 26.083 16.9113C26.083 16.9245 26.1027 16.9113 26.1027 16.9047C26.0564 16.4018 25.8181 16.0047 25.4939 15.7201C25.2425 15.5016 24.9381 15.3494 24.6203 15.2567C24.4152 15.1972 24.1966 15.1708 23.9915 15.1642C23.7071 15.1642 23.4422 15.2104 23.2105 15.303C23.2039 15.303 23.1908 15.2965 23.1974 15.2833C23.4025 14.9921 23.6871 14.8133 23.9915 14.7208C24.2034 14.6545 24.4217 14.6347 24.6203 14.6479C24.8122 14.6611 24.991 14.7008 25.1366 14.7669C25.1432 14.7669 25.1564 14.7604 25.1498 14.7472C24.991 14.5684 24.8122 14.4228 24.6203 14.3169C24.4217 14.2045 24.21 14.1384 23.9915 14.1118C23.4291 14.0457 22.8598 14.284 22.4827 14.8596C22.4827 14.8662 22.4693 14.8662 22.4627 14.8596C22.39 14.7274 22.3171 14.5884 22.251 14.4362C22.0988 14.0855 21.973 13.6884 21.9069 13.2979C21.9069 13.2845 21.8871 13.2845 21.8871 13.2979C21.8208 13.695 21.6951 14.092 21.5429 14.4428C21.4766 14.595 21.4105 14.734 21.3378 14.8662C21.3378 14.873 21.3244 14.873 21.3178 14.8662C20.6561 13.8603 19.4051 13.8803 18.6507 14.7472C18.6441 14.7538 18.6507 14.7669 18.6639 14.7669C19.1671 14.5289 20.1266 14.595 20.6032 15.2833C20.6032 15.2899 20.6032 15.303 20.5898 15.303C19.8486 14.9921 18.7103 15.1972 18.1015 15.9186C17.8832 16.1767 17.7307 16.5011 17.6978 16.8916C17.6978 16.9047 17.711 16.9113 17.7176 16.8982C17.7639 16.8055 17.8832 16.6201 18.1015 16.4282C18.4588 16.1172 19.081 15.7928 20.1068 15.8921C20.12 15.8921 20.12 15.9121 20.1068 15.9121C19.5839 15.9782 18.4985 16.4481 18.1015 17.5135C17.9227 17.9901 17.8832 18.5791 18.0749 19.307C18.0749 19.3204 18.0949 19.3204 18.0949 19.307C18.0949 19.2938 18.0949 19.274 18.0949 19.2609C18.108 18.2879 18.6639 16.984 20.0405 16.6533C20.0539 16.6533 20.0605 16.6665 20.0539 16.673C18.5117 18.0299 18.6639 19.6975 19.1671 20.6902C19.1671 20.7035 19.1868 20.6902 19.1868 20.6902C19.1207 19.9423 19.0678 18.6121 20.3054 17.6062C20.312 17.5996 20.3317 17.6062 20.3251 17.6194C20.0405 18.0762 19.3656 19.8762 20.7488 21.5109C20.7554 21.5175 20.7751 21.5109 20.7686 21.5043C20.5369 20.9484 20.2259 18.996 21.331 18.2945C21.3378 18.2945 21.3444 18.2945 21.351 18.3011C21.47 19.7306 21.7215 22.636 21.2054 25.7729C20.312 25.0914 19.3722 24.489 18.439 24.1382C18.3266 24.0987 18.2073 24.0589 18.1015 24.0192C17.1419 23.7016 16.2551 23.6155 15.4873 23.6485C14.2563 23.7014 13.31 24.0721 12.7936 24.3302C12.6878 24.3831 12.6019 24.4294 12.529 24.4692C12.5026 24.4824 12.5224 24.5221 12.5488 24.5155C12.6283 24.489 12.7078 24.4692 12.787 24.4428C13.7334 24.178 14.6336 24.1053 15.4807 24.178C16.4073 24.2575 17.2807 24.5155 18.0949 24.8794C19.2398 25.3958 20.2722 26.1238 21.2054 26.9046C19.8883 28.0563 18.7766 29.168 18.0949 29.5651C18.0617 29.5851 18.0288 29.6048 17.9956 29.618C17.8368 29.3997 17.5522 29.2673 17.2412 29.3336C16.9763 29.3931 16.758 29.6048 16.6985 29.8695C16.6454 30.1078 16.7051 30.366 16.8373 30.4983C17.1949 30.8556 17.6117 30.8822 18.0883 30.6836C19.0015 30.2997 20.1332 29.0953 21.5295 27.818C21.6422 27.7121 21.7612 27.6063 21.8871 27.5002C22.0061 27.6063 22.1254 27.7121 22.2378 27.818C22.8732 28.3938 23.4488 28.9563 23.9783 29.4395C24.1966 29.638 24.4086 29.8234 24.6071 29.9822C24.9181 30.2336 25.2093 30.4453 25.4805 30.5909C26.0166 30.869 26.4735 30.9087 26.8705 30.5578C26.8903 30.538 26.9169 30.5248 26.9366 30.4983C27.0293 30.4056 27.1352 30.1078 27.0757 29.8695C27.0425 29.7307 26.9698 29.6114 26.8705 29.5122C26.7779 29.4195 26.6586 29.36 26.533 29.3268C26.2286 29.2607 25.9439 29.3865 25.7786 29.6114C25.6859 29.5651 25.5866 29.5056 25.4805 29.4261C25.2291 29.2541 24.9379 29.0092 24.6071 28.718C24.4086 28.546 24.2034 28.3541 23.9783 28.1556C23.5481 27.7651 23.0783 27.3348 22.5754 26.898C23.0188 26.5275 23.4886 26.1702 23.9783 25.8392C24.1835 25.7002 24.3952 25.5677 24.6071 25.4421C24.8917 25.2765 25.1827 25.1177 25.4805 24.9721C25.9308 24.7604 26.394 24.575 26.8705 24.4428C27.8632 24.1582 28.9354 24.0589 30.0869 24.2441C30.4574 24.3038 30.8413 24.3897 31.2318 24.5155C31.265 24.5221 31.2847 24.4824 31.2584 24.4692"
              fill="white"
            />
          </svg>