<svg xmlns="http://www.w3.org/2000/svg" width="13" height="13" viewBox="0 0 13 13" fill="none">
  <path d="M11.2 7.46667C11.2 6.8784 10.7216 6.4 10.1333 6.4H9.06667C8.4784 6.4 8 6.8784 8 7.46667C7.11787 7.46667 6.4 8.18453 6.4 9.06667V11.2C6.4 12.0821 7.11787 12.8 8 12.8H11.2C12.0821 12.8 12.8 12.0821 12.8 11.2V9.06667C12.8 8.18453 12.0821 7.46667 11.2 7.46667ZM9.06667 6.93333H10.1333C10.4272 6.93333 10.6667 7.1728 10.6667 7.46667H8.53333C8.53333 7.1728 8.7728 6.93333 9.06667 6.93333ZM12.2667 11.2C12.2667 11.7883 11.7883 12.2667 11.2 12.2667H8C7.41173 12.2667 6.93333 11.7883 6.93333 11.2V10.1333H9.33333V10.9333C9.33333 11.0041 9.36143 11.0719 9.41144 11.1219C9.46145 11.1719 9.52928 11.2 9.6 11.2C9.67072 11.2 9.73855 11.1719 9.78856 11.1219C9.83857 11.0719 9.86667 11.0041 9.86667 10.9333V10.1333H12.2667V11.2ZM12.2667 9.6H6.93333V9.06667C6.93333 8.4784 7.41173 8 8 8H11.2C11.7883 8 12.2667 8.4784 12.2667 9.06667V9.6ZM4.8 6.4C6.5648 6.4 8 4.9648 8 3.2C8 1.4352 6.5648 0 4.8 0C3.0352 0 1.6 1.4352 1.6 3.2C1.6 4.9648 3.0352 6.4 4.8 6.4ZM4.8 0.533333C6.2704 0.533333 7.46667 1.7296 7.46667 3.2C7.46667 4.6704 6.2704 5.86667 4.8 5.86667C3.3296 5.86667 2.13333 4.6704 2.13333 3.2C2.13333 1.7296 3.3296 0.533333 4.8 0.533333ZM5.864 7.81867C5.85937 7.85349 5.84784 7.88703 5.83008 7.91734C5.81232 7.94765 5.7887 7.9741 5.76058 7.99516C5.73247 8.01622 5.70044 8.03146 5.66636 8.03998C5.63229 8.04851 5.59685 8.05015 5.56213 8.0448C5.35387 8.0149 5.14373 7.99992 4.93333 8C2.5072 8 0.533333 9.97387 0.533333 12.4V12.5333C0.533333 12.6041 0.505238 12.6719 0.455229 12.7219C0.405219 12.7719 0.337391 12.8 0.266667 12.8C0.195942 12.8 0.128115 12.7719 0.0781049 12.7219C0.0280952 12.6719 0 12.6041 0 12.5333V12.4C0 9.67947 2.2128 7.46667 4.93333 7.46667C5.16907 7.46667 5.4064 7.48373 5.63787 7.5168C5.78347 7.53813 5.8848 7.67307 5.864 7.81867Z" fill="white"/>
</svg>